<?xml version="1.0" standalone="no"?>
<!DOCTYPE svg PUBLIC "-//W3C//DTD SVG 20010904//EN" "http://www.w3.org/TR/2001/REC-SVG-20010904/DTD/svg10.dtd">
<svg xmlns="http://www.w3.org/2000/svg" version="1.0" width="1197" height="1280" viewBox="0 0 1197.000000 1280.000000" preserveAspectRatio="xMidYMid meet">
<g transform="translate(0.000000,1280.000000) scale(0.100000,-0.100000)" fill="#000000" stroke="none">
<path d="M170 12780 c-78 -29 -125 -79 -151 -162 -25 -77 -23 -117 10 -268 45 -202 132 -423 301 -765 158 -320 300 -550 530 -856 372 -495 716 -865 1065 -1145 61 -49 148 -120 195 -159 131 -108 314 -248 542 -411 267 -192 433 -331 588 -491 242 -248 377 -471 441 -727 32 -128 37 -349 10 -503 -63 -373 -275 -789 -693 -1360 -226 -310 -273 -402 -249 -484 15 -49 120 -166 158 -175 34 -9 52 11 95 102 49 105 49 114 -1 114 -40 0 -56 11 -63 45 -3 15 -11 19 -29 17 -59 -6 -89 103 -41 150 31 31 54 16 142 -90 41 -50 78 -91 81 -92 8 0 676 556 924 770 353 304 1686 1460 2030 1760 872 761 1094 947 1103 921 2 -6 -46 -63 -107 -127 -61 -63 -111 -119 -111 -123 0 -5 16 -12 36 -16 30 -5 67 -36 202 -168 297 -293 772 -835 772 -883 0 -30 -32 -26 -88 12 -85 59 -235 212 -478 489 -250 284 -437 480 -474 493 -34 13 -57 0 -187 -106 -215 -176 -739 -661 -698 -646 50 17 66 16 91 -6 13 -13 24 -31 24 -40 0 -34 -55 -98 -228 -267 -97 -95 -172 -172 -166 -172 6 -1 70 54 142 122 71 67 144 130 161 140 28 16 32 17 37 3 7 -19 -21 -59 -120 -171 -82 -91 -49 -73 65 37 91 88 117 124 100 141 -6 6 -11 17 -11 24 0 21 61 83 81 83 17 0 18 -5 13 -40 -6 -38 -5 -40 20 -40 59 0 23 -48 -237 -317 -186 -192 -186 -192 -180 -230 3 -21 7 -40 9 -42 6 -6 109 75 238 187 238 209 301 254 355 256 33 1 36 -1 39 -31 3 -29 -1 -34 -68 -73 -50 -29 -114 -84 -208 -177 -151 -150 -150 -150 24 -6 128 106 206 163 223 163 19 0 22 -19 7 -48 -17 -33 -91 -104 -306 -293 -161 -142 -220 -199 -205 -199 11 0 79 56 235 195 237 212 343 295 356 282 17 -16 -28 -67 -246 -279 -132 -127 -238 -234 -235 -236 2 -2 61 46 131 107 199 175 411 341 436 341 31 0 -19 -60 -209 -252 -119 -120 -213 -218 -208 -218 9 0 48 34 326 278 147 130 219 171 219 124 0 -21 -94 -114 -290 -287 -198 -175 -371 -337 -366 -343 6 -6 57 36 291 238 281 243 315 269 315 238 0 -6 -121 -134 -270 -283 -148 -149 -270 -275 -270 -280 0 -4 10 0 23 11 45 38 206 182 322 289 187 172 314 275 339 275 31 0 -30 -70 -235 -273 -133 -130 -240 -239 -238 -242 5 -5 148 115 274 229 197 180 299 256 316 239 7 -7 -9 -32 -50 -80 -95 -108 -481 -461 -540 -493 -25 -13 -48 -4 -55 23 -5 21 -5 21 -27 1 -20 -18 -20 -19 -3 -23 34 -6 45 -22 38 -54 -5 -24 -3 -28 9 -21 57 33 464 381 747 640 140 128 208 167 244 141 16 -12 17 -17 6 -38 -41 -76 -115 -144 -750 -684 -949 -808 -1228 -1041 -1303 -1090 -19 -12 -31 -15 -38 -8 -7 7 6 27 36 61 26 29 43 52 38 52 -4 0 -61 -45 -126 -100 -65 -55 -123 -100 -128 -100 -18 0 -8 37 22 86 17 27 84 101 148 164 64 63 125 126 136 140 l20 24 -21 -14 c-12 -8 -59 -46 -105 -83 -89 -72 -137 -102 -147 -92 -25 25 235 243 273 229 9 -4 19 6 28 28 8 18 33 58 56 88 22 30 41 58 41 62 0 20 -27 2 -102 -69 -84 -77 -232 -193 -249 -193 -24 0 2 30 137 162 143 140 195 198 176 198 -5 0 -54 -40 -109 -88 -182 -161 -213 -182 -213 -148 0 14 49 74 142 173 97 103 86 97 -122 -66 -65 -51 -80 -59 -80 -42 0 5 61 72 134 149 180 189 247 273 201 256 -8 -4 -22 -1 -30 6 -12 10 -15 9 -15 -7 0 -31 -113 -153 -248 -267 -44 -38 -20 3 44 75 181 201 177 218 -13 63 -27 -22 -33 -23 -33 -10 0 20 243 272 300 311 25 17 47 25 60 22 23 -6 26 11 7 38 -13 17 -23 10 -140 -93 -159 -140 -247 -206 -260 -193 -6 6 3 25 25 53 40 49 62 88 51 88 -5 0 -30 -18 -57 -40 -49 -41 -66 -48 -66 -30 0 43 85 130 126 130 21 0 24 4 19 20 -10 31 17 64 108 131 86 64 95 73 77 84 -15 9 -60 -25 -207 -162 -73 -68 -139 -123 -147 -123 -22 0 -25 23 -11 91 7 35 17 91 20 124 9 69 32 120 86 189 52 65 52 84 -1 55 -22 -12 -43 -20 -46 -16 -4 4 11 27 32 53 61 73 94 117 94 126 0 13 -39 -10 -92 -54 -26 -22 -53 -38 -59 -36 -16 5 63 101 104 127 19 11 51 21 70 21 70 0 146 97 147 186 0 32 10 56 40 101 87 131 323 323 397 323 39 0 82 20 136 63 40 33 50 55 16 37 -25 -14 -49 -6 -49 16 0 14 -3 14 -15 4 -11 -9 -14 -22 -10 -40 4 -19 1 -33 -10 -44 -19 -19 -29 -20 -56 -6 -25 14 -41 5 -149 -79 -220 -171 -604 -506 -754 -659 l-69 -71 11 -213 c12 -204 33 -401 66 -593 29 -175 47 -363 56 -585 5 -125 12 -234 16 -244 4 -11 14 -16 25 -13 37 10 28 -11 -30 -66 -73 -70 -147 -117 -182 -117 -35 0 -46 -16 -17 -23 20 -6 20 -8 6 -29 -15 -22 -34 -31 -89 -43 -15 -2 -67 -34 -115 -70 -133 -98 -133 -97 -144 -93 -6 2 12 32 39 66 71 88 69 103 -4 52 -24 -17 -46 -30 -49 -30 -19 0 2 34 58 96 134 147 182 244 120 244 -33 0 -104 -41 -209 -120 -44 -33 -83 -60 -87 -60 -19 0 -3 24 60 92 162 175 163 211 2 63 -45 -41 -93 -78 -106 -81 -58 -15 -43 21 52 126 42 47 83 95 91 108 33 48 2 31 -79 -44 -106 -97 -155 -131 -170 -116 -14 14 16 60 107 162 93 104 118 170 65 170 -31 0 -74 -25 -143 -83 -85 -72 -108 -87 -134 -87 -47 0 -18 50 94 158 76 72 112 123 74 103 -11 -6 -46 -35 -78 -65 -66 -61 -130 -106 -149 -106 -8 0 -14 11 -14 26 0 19 26 52 100 128 55 57 100 106 100 110 0 14 -45 -18 -124 -88 -104 -93 -134 -112 -148 -98 -14 14 24 74 96 152 28 30 60 66 71 79 l20 24 -35 -18 c-19 -10 -56 -37 -82 -61 -47 -44 -88 -57 -88 -29 0 8 38 52 85 98 47 46 85 91 85 101 0 26 -47 68 -73 64 -16 -2 -23 -11 -25 -30 -4 -31 0 -33 30 -17 14 8 23 8 31 0 8 -8 -7 -28 -50 -71 -77 -77 -115 -82 -78 -10 8 16 21 67 29 115 8 52 20 93 31 105 70 78 323 -83 543 -344 42 -50 118 -156 170 -236 106 -163 173 -240 210 -240 27 0 28 -13 -6 160 -11 58 -28 146 -37 195 -17 99 -57 194 -105 253 -17 22 -38 61 -46 88 -22 72 -28 252 -15 484 15 272 36 372 89 433 32 36 -7 14 -88 -50 -47 -37 -236 -196 -420 -353 -184 -157 -463 -393 -620 -525 -473 -395 -523 -446 -561 -567 -12 -37 -30 -75 -40 -84 -43 -39 -52 -28 550 -705 231 -261 422 -462 671 -709 421 -418 457 -461 1415 -1730 909 -1204 1195 -1562 1434 -1800 155 -153 212 -191 331 -221 47 -11 94 -25 106 -30 81 -40 938 626 1609 1251 99 92 187 179 194 194 13 24 12 28 -8 50 -29 31 -20 46 22 40 25 -4 46 3 92 31 88 53 193 134 326 251 177 157 269 264 269 316 0 24 4 28 29 28 74 0 423 281 433 348 2 17 13 28 41 37 46 16 80 41 227 171 160 141 328 319 351 370 14 34 23 43 46 46 24 2 29 9 33 38 5 33 8 35 42 36 70 2 195 103 221 179 12 34 19 41 50 46 43 7 89 41 178 128 76 76 99 109 108 154 7 31 17 39 86 69 29 13 30 16 33 81 3 67 3 67 32 67 17 0 30 4 30 10 0 27 -90 176 -151 250 -193 233 -650 719 -1778 1890 -1003 1041 -1210 1263 -1277 1368 l-36 55 -18 -40 c-26 -58 -70 -104 -194 -201 -150 -117 -168 -131 -596 -498 -206 -176 -539 -455 -740 -619 -470 -385 -615 -507 -950 -800 -151 -132 -360 -312 -465 -400 -384 -322 -848 -740 -1143 -1029 -151 -148 -206 -196 -214 -188 -9 9 -7 34 5 99 10 49 17 97 17 109 0 26 26 49 65 58 63 15 167 96 575 446 151 130 471 400 710 600 239 200 558 470 709 599 471 405 617 528 1033 872 722 597 1095 926 890 787 -84 -56 -213 -160 -387 -308 -218 -187 -383 -323 -785 -650 -395 -320 -592 -486 -770 -645 -186 -166 -532 -461 -1080 -922 -256 -215 -539 -455 -630 -532 -171 -145 -205 -170 -217 -157 -18 18 285 287 1151 1022 253 214 609 520 791 679 774 678 1388 1191 1782 1488 242 182 354 251 405 249 16 0 28 3 28 7 0 3 -25 31 -56 61 -30 30 -73 84 -94 120 -68 115 -364 447 -856 960 -304 318 -441 446 -531 498 -54 31 -63 33 -133 29 -95 -5 -139 -26 -400 -197 -342 -223 -551 -338 -770 -425 -52 -21 -97 -40 -100 -43 -14 -14 78 18 290 103 129 51 245 96 257 100 63 18 41 -37 -39 -99 -127 -99 -360 -195 -588 -240 -446 -89 -844 -47 -1219 130 -119 56 -189 106 -332 240 -358 334 -748 836 -723 931 4 13 -3 21 -24 29 -35 13 -156 162 -329 406 -70 98 -128 177 -129 175 -1 -1 9 -36 22 -77 42 -127 139 -270 183 -270 16 0 28 -16 51 -66 16 -36 55 -102 87 -147 93 -134 434 -586 515 -683 327 -393 728 -654 1142 -743 250 -55 493 -47 778 25 159 40 204 29 157 -37 -12 -17 -115 -108 -228 -202 -351 -292 -782 -668 -1491 -1302 -441 -394 -632 -555 -662 -555 -31 0 -20 32 57 166 287 493 405 862 405 1265 0 250 -40 438 -135 637 -98 205 -212 350 -386 492 -242 199 -415 343 -574 479 -238 204 -265 226 -396 323 -284 212 -645 584 -1014 1048 -395 495 -696 963 -843 1310 -71 169 -97 258 -97 338 0 68 2 75 28 98 57 49 183 22 391 -82 173 -87 303 -167 404 -248 344 -274 912 -863 1311 -1358 56 -71 105 -128 107 -128 3 0 -12 26 -33 58 -84 130 -108 192 -75 192 17 0 84 -73 197 -214 62 -78 140 -172 172 -207 94 -103 171 -210 407 -558 236 -350 286 -434 286 -484 1 -26 9 -37 41 -60 31 -21 40 -33 37 -51 -2 -16 7 -31 28 -49 17 -15 48 -53 68 -85 29 -45 48 -63 86 -80 31 -14 96 -67 180 -148 200 -191 344 -290 526 -366 194 -80 446 -120 634 -101 l95 10 -105 2 c-633 8 -1168 442 -1908 1547 -66 98 -240 366 -387 594 -147 228 -305 469 -353 535 -374 523 -826 979 -1170 1183 -132 79 -521 274 -660 331 -312 128 -521 171 -632 131z m-36 -82 c7 -13 16 -61 19 -108 10 -164 138 -590 178 -590 3 0 -9 53 -28 117 -89 309 -112 561 -48 537 21 -8 33 -51 44 -149 11 -101 61 -277 125 -437 46 -113 97 -209 103 -192 2 5 -15 61 -38 124 -88 246 -123 383 -117 455 2 28 8 41 20 43 25 5 46 -43 64 -150 39 -233 193 -570 470 -1035 237 -396 441 -677 641 -884 91 -94 103 -111 103 -142 0 -19 7 -40 15 -47 12 -10 15 -10 15 4 0 9 4 16 10 16 15 0 122 -96 385 -345 239 -227 519 -472 1070 -935 363 -306 520 -461 593 -585 83 -142 102 -235 47 -235 -19 0 -26 7 -31 28 -20 92 -67 183 -152 297 -59 78 -163 185 -180 185 -17 0 12 -41 98 -140 69 -80 130 -160 130 -171 0 -5 -9 -9 -19 -9 -12 0 -49 35 -96 89 -42 49 -117 124 -166 167 -92 80 -109 112 -56 106 15 -1 27 1 27 6 0 12 -69 48 -118 62 -32 8 -46 18 -54 38 -24 60 -33 74 -65 93 -19 12 -54 22 -81 23 -75 4 -133 43 -152 102 -8 23 -20 36 -42 43 -36 13 -78 14 -78 4 0 -5 43 -49 97 -99 57 -53 92 -93 86 -97 -13 -8 -99 47 -351 227 -236 168 -409 305 -549 435 -58 55 -117 104 -130 110 -12 6 -35 17 -50 24 -62 28 -413 389 -713 732 -405 462 -702 904 -789 1173 -16 51 -48 125 -69 165 -72 130 -157 416 -202 680 -19 116 -27 267 -13 280 13 13 33 7 47 -15z m6633 -3710 c6 -7 13 -26 17 -41 4 -16 27 -48 51 -72 25 -24 45 -49 45 -55 0 -23 -61 -70 -90 -70 -31 0 -68 36 -100 101 -29 56 -26 82 15 118 39 34 48 37 62 19z m669 -147 c113 -101 560 -552 709 -716 174 -191 205 -238 169 -252 -27 -10 -75 23 -206 141 -201 184 -732 754 -785 844 -25 42 -25 72 0 72 7 0 58 -40 113 -89z m-76 -108 c183 -186 723 -777 763 -835 15 -23 27 -54 27 -69 0 -24 -8 -33 -51 -54 -28 -15 -58 -23 -69 -20 -77 25 -860 941 -902 1056 -3 8 0 29 8 47 10 25 19 32 41 32 22 0 57 -30 183 -157z m-781 63 c36 -19 89 -79 97 -111 10 -40 -19 -75 -61 -75 -29 0 -45 10 -90 53 -59 57 -68 85 -39 125 18 26 52 28 93 8z m-86 -162 c42 -48 77 -90 77 -95 0 -4 -80 -74 -177 -155 -412 -343 -765 -644 -1028 -874 -154 -135 -350 -304 -435 -375 -85 -72 -252 -216 -370 -320 -641 -568 -1407 -1225 -1427 -1225 -16 0 -139 113 -155 143 -6 13 -5 23 3 34 7 8 209 184 448 391 496 428 1185 1029 1690 1471 321 282 576 502 1066 920 110 93 207 170 216 171 8 0 50 -39 92 -86z m516 -150 c56 -58 154 -169 220 -247 65 -78 176 -200 246 -272 70 -71 133 -144 141 -161 7 -17 52 -73 99 -125 113 -122 131 -160 71 -145 -42 10 -375 357 -649 676 -204 237 -295 380 -243 380 8 0 59 -48 115 -106z m-371 -588 c5 -25 -55 -86 -85 -86 -35 0 -31 45 9 81 34 33 71 35 76 5z m102 -76 c26 -26 26 -76 -1 -119 -11 -18 -18 -35 -16 -37 2 -2 18 0 35 5 44 13 49 -2 16 -50 -47 -68 -80 -70 -104 -6 -15 42 -12 78 10 122 11 21 18 41 15 43 -2 2 -18 -1 -35 -6 -44 -16 -54 12 -16 45 33 28 69 30 96 3z m1658 14 c13 -4 22 -14 22 -25 0 -13 -23 -30 -85 -59 -155 -74 -365 -250 -365 -307 0 -24 -4 -27 -51 -37 -61 -13 -312 -207 -564 -435 -71 -65 -209 -182 -305 -261 -96 -79 -301 -255 -455 -390 -154 -135 -467 -403 -695 -595 -228 -192 -537 -453 -685 -580 -149 -126 -358 -302 -464 -390 -257 -211 -353 -296 -371 -328 -14 -25 -13 -28 18 -60 17 -18 32 -39 32 -47 0 -20 -31 -50 -52 -50 -16 0 -18 5 -13 34 6 30 4 34 -19 40 -64 16 -116 -32 -212 -195 -74 -124 -94 -131 -94 -31 0 163 92 257 830 848 579 464 1039 857 1570 1343 271 248 451 405 810 706 157 132 332 279 389 328 127 109 215 167 252 167 22 0 29 6 34 29 17 79 229 239 380 287 46 15 62 16 93 8z m83 -104 c28 -15 111 -142 99 -154 -5 -5 -24 4 -49 23 -50 40 -125 73 -154 69 -20 -3 -20 -5 9 -20 81 -44 117 -114 78 -152 -22 -23 -52 -20 -111 9 -53 27 -133 104 -133 128 0 22 34 47 107 77 72 30 122 37 154 20z m-1613 -132 c18 -18 -3 -45 -61 -78 -80 -46 -99 -38 -50 21 24 28 79 69 94 69 3 0 10 -5 17 -12z m-588 -22 c0 -33 -383 -406 -417 -406 -68 0 125 214 338 374 65 49 79 55 79 32z m1891 -10 c10 -13 34 -27 52 -30 89 -17 108 -124 33 -184 -75 -59 -150 -21 -96 48 23 30 25 40 5 40 -19 0 -34 28 -27 53 4 18 2 19 -24 13 -46 -12 -48 -12 -51 5 -5 20 49 79 72 79 9 0 26 -11 36 -24z m-1208 -12 c17 -17 -74 -122 -132 -154 -29 -15 -51 -6 -51 20 0 36 17 56 81 99 58 39 88 49 102 35z m42 -148 c0 -82 11 -102 50 -89 68 21 68 -5 -1 -77 -54 -56 -92 -76 -95 -47 -1 6 -1 33 1 59 3 72 -5 88 -46 88 -30 0 -34 3 -34 26 0 31 91 129 112 122 9 -3 13 -28 13 -82z m235 -117 c0 -6 -21 -36 -47 -66 -91 -106 -183 -156 -183 -100 0 48 45 92 145 142 77 38 85 40 85 24z m1519 -55 c27 -18 50 -25 73 -22 l33 3 5 -60 c5 -65 16 -86 79 -159 66 -76 88 -136 50 -136 -27 0 -238 250 -281 333 -17 34 -19 67 -3 67 3 0 23 -12 44 -26z m-3444 -84 c0 -13 -12 -31 -27 -43 -23 -17 -31 -19 -53 -9 -27 13 -34 52 -12 70 35 28 92 17 92 -18z m3320 -124 c201 -205 531 -583 566 -648 20 -38 -6 -44 -48 -12 -93 70 -506 513 -620 665 -57 76 -67 109 -31 109 14 0 59 -38 133 -114z m-227 -145 c90 -75 251 -239 300 -306 47 -65 122 -149 357 -400 308 -330 354 -395 278 -395 -31 0 -153 120 -475 470 -270 293 -323 356 -344 406 -9 21 -46 68 -83 103 -85 83 -121 129 -121 152 0 31 25 22 88 -30z m1032 -268 c344 -347 635 -651 1059 -1103 168 -179 474 -505 682 -725 622 -661 678 -728 622 -749 -27 -11 -87 38 -185 151 -223 258 -391 438 -1344 1443 -470 496 -593 629 -704 755 -58 66 -168 188 -246 271 -77 83 -157 172 -177 196 -40 49 -50 86 -19 69 9 -5 150 -144 312 -308z m-829 250 c61 -56 239 -271 239 -290 0 -24 -17 -14 -91 55 -97 89 -229 242 -229 264 0 30 25 21 81 -29z m-1151 -30 c0 -20 -44 -68 -208 -227 -62 -59 -112 -112 -112 -117 0 -18 18 -8 80 46 59 51 90 67 90 46 0 -16 -170 -171 -544 -496 -203 -176 -480 -416 -615 -534 -135 -117 -325 -279 -421 -360 -96 -80 -219 -185 -273 -234 -125 -112 -169 -141 -201 -133 -38 9 -61 68 -61 156 0 68 2 75 24 86 13 7 31 29 41 50 30 69 217 224 269 224 8 0 29 -16 47 -35 43 -47 83 -48 130 -1 29 29 34 41 34 80 0 26 7 61 16 79 64 126 311 381 574 592 205 164 340 245 412 245 94 0 135 53 113 147 -6 28 -2 37 41 83 55 59 110 91 166 96 50 5 96 29 199 105 155 115 199 138 199 102z m1641 -34 c16 -11 195 -199 397 -417 202 -218 538 -579 746 -802 209 -223 477 -513 596 -645 243 -269 371 -395 399 -395 19 0 31 -18 31 -47 0 -23 95 -163 224 -328 141 -182 171 -224 163 -231 -15 -16 -58 21 -218 184 -211 215 -351 372 -484 543 -227 291 -1131 1269 -1174 1269 -7 0 -9 -10 -5 -25 4 -15 2 -25 -4 -25 -27 0 -257 220 -311 297 -22 32 -21 53 1 53 7 0 58 -48 115 -107 57 -60 103 -103 103 -96 0 15 -104 144 -295 363 -266 307 -325 381 -325 411 0 24 5 24 41 -2z m-829 -66 c51 -35 736 -784 1187 -1299 301 -342 330 -383 280 -399 -40 -13 -102 34 -189 142 -151 190 -594 689 -975 1098 -169 181 -298 332 -346 404 -52 79 -30 105 43 54z m-90 -200 c153 -188 316 -368 817 -903 519 -553 672 -720 831 -905 52 -60 152 -169 221 -241 83 -86 130 -143 138 -167 7 -20 21 -39 31 -42 28 -9 164 -157 324 -354 184 -228 300 -349 344 -357 17 -4 32 -10 32 -14 0 -5 -19 -29 -43 -56 -33 -36 -47 -45 -59 -38 -35 19 -405 440 -580 659 -53 66 -143 170 -201 232 -101 107 -137 155 -137 186 0 8 -37 50 -81 93 -251 243 -1458 1570 -1646 1810 -42 53 -95 153 -87 165 13 22 38 4 96 -68z m-247 51 c9 -4 149 -146 311 -316 283 -297 418 -453 806 -928 96 -118 266 -321 377 -450 272 -316 312 -370 272 -370 -25 0 -342 345 -678 740 -105 124 -240 282 -300 351 -59 69 -194 227 -300 350 -105 123 -259 302 -341 398 -182 212 -205 247 -147 225z m-33 -101 c22 -21 86 -92 142 -158 55 -66 209 -246 341 -400 271 -316 316 -370 368 -439 37 -49 48 -91 25 -99 -36 -12 -115 64 -314 303 -71 85 -205 245 -298 355 -168 198 -309 380 -329 422 -11 24 -4 53 13 53 5 0 29 -17 52 -37z m1033 12 c56 -42 464 -502 522 -588 43 -63 16 -55 -58 19 -96 93 -377 402 -450 492 -75 93 -81 129 -14 77z m-1074 -285 c301 -305 729 -780 841 -932 21 -29 47 -64 58 -78 24 -29 22 -73 -2 -78 -21 -4 -49 47 -41 76 3 14 1 22 -8 22 -48 0 -1079 1105 -1079 1157 0 7 11 13 27 13 22 0 62 -35 204 -180z m-178 -43 c62 -68 228 -252 367 -408 286 -319 565 -627 810 -894 190 -207 235 -261 279 -329 38 -60 40 -86 8 -86 -30 0 -87 54 -238 224 -68 77 -205 228 -303 335 -201 219 -367 407 -410 464 -33 43 -57 58 -105 66 -27 5 -36 12 -42 34 -10 37 -114 175 -273 362 -181 212 -251 312 -239 341 11 29 35 11 146 -109z m1593 101 c232 -176 1108 -1159 1549 -1738 141 -185 180 -231 349 -415 151 -163 216 -248 216 -281 0 -56 -33 -40 -158 80 -106 102 -226 245 -504 603 -353 454 -550 684 -1141 1336 -330 362 -357 395 -357 421 0 22 12 20 46 -6z m-5228 -140 c29 -29 -6 -83 -50 -76 -31 4 -35 41 -9 67 24 24 42 26 59 9z m3389 -36 c149 -125 509 -503 674 -710 115 -142 178 -216 323 -377 55 -60 147 -166 205 -234 58 -69 164 -190 235 -270 71 -80 230 -267 355 -415 124 -149 307 -363 407 -477 423 -483 610 -720 587 -743 -28 -28 -112 46 -307 269 -72 83 -173 195 -226 250 -165 174 -362 425 -402 512 -11 24 -30 48 -45 55 -18 8 -31 25 -37 48 -7 25 -43 68 -133 155 -67 67 -123 128 -123 137 0 23 -86 125 -284 338 -186 199 -229 247 -502 560 -197 226 -418 471 -619 685 -143 152 -195 218 -195 247 0 30 25 21 87 -30z m-60 -256 c294 -303 881 -967 1273 -1441 68 -82 232 -276 365 -430 320 -373 338 -396 316 -418 -28 -28 -54 0 -842 903 -558 639 -638 733 -674 790 -14 22 -92 110 -173 196 -190 201 -268 289 -354 398 -76 99 -102 141 -93 156 11 18 38 -6 182 -154z m-304 13 c87 -46 488 -484 695 -760 45 -60 57 -101 32 -106 -35 -8 -608 618 -736 804 -43 61 -39 87 9 62z m-62 -146 c95 -99 202 -227 519 -618 646 -797 1030 -1249 1485 -1750 247 -273 311 -345 431 -490 108 -130 257 -328 293 -388 23 -37 23 -67 0 -67 -25 0 -198 184 -322 344 -73 94 -240 289 -371 435 -1059 1178 -2116 2468 -2116 2583 0 30 14 21 81 -49z m2464 36 c24 -22 35 -40 35 -59 0 -33 9 -41 72 -64 40 -15 51 -25 67 -60 11 -27 75 -101 172 -202 85 -87 164 -173 177 -191 25 -35 29 -73 8 -73 -52 0 -492 441 -595 597 -24 36 -28 50 -20 64 14 28 43 23 84 -12z m-2638 -188 c111 -96 257 -260 658 -741 126 -151 282 -336 346 -411 64 -75 134 -160 156 -190 22 -30 101 -119 175 -199 189 -204 254 -284 287 -355 37 -77 107 -165 319 -398 454 -500 772 -895 772 -957 0 -64 -91 22 -304 284 -169 210 -261 316 -461 531 -261 280 -509 611 -530 705 -4 19 -14 30 -32 35 -57 14 -283 260 -648 705 -110 134 -312 379 -450 544 -282 340 -385 472 -385 492 0 27 30 13 97 -45z m-3353 -9 c67 -51 214 -208 351 -377 226 -277 455 -574 455 -590 0 -10 -31 -52 -68 -94 -77 -85 -187 -219 -221 -268 -12 -18 -29 -33 -38 -33 -33 0 -86 46 -200 173 -140 156 -421 461 -591 640 -67 71 -122 136 -122 145 0 23 87 230 111 264 48 67 86 46 235 -134 124 -151 313 -368 320 -368 2 0 -53 71 -122 158 -224 280 -305 419 -282 482 23 64 89 64 172 2z m3237 -69 c72 -77 166 -189 399 -478 397 -492 710 -867 1185 -1420 465 -541 482 -562 471 -591 -4 -12 -10 -12 -26 -4 -36 19 -151 133 -273 270 -66 74 -175 191 -242 260 -100 102 -311 343 -642 732 -24 28 -43 55 -43 61 0 15 -141 201 -408 535 -310 388 -360 453 -432 558 -54 79 -75 134 -52 134 5 0 33 -26 63 -57z m-2434 -55 c-46 -60 -172 -188 -184 -188 -29 0 -9 40 50 96 123 120 193 167 134 92z m1389 -3 c17 -25 13 -67 -8 -92 -15 -18 -44 1 -57 37 -22 65 30 109 65 55z m950 -62 c36 -43 193 -235 347 -427 386 -478 542 -667 822 -992 294 -341 405 -479 405 -505 0 -48 -38 -14 -293 265 -111 121 -283 308 -382 416 -192 208 -240 264 -272 321 -11 19 -62 87 -114 150 -52 63 -152 191 -223 284 -71 94 -173 225 -227 291 -138 172 -178 242 -152 267 13 14 24 5 89 -70z m2261 -52 c119 -98 396 -403 1008 -1106 225 -258 490 -562 588 -675 190 -216 208 -243 188 -263 -21 -21 -112 37 -207 131 -48 48 -186 206 -308 352 -287 346 -450 536 -791 925 -431 491 -570 659 -559 676 9 16 22 10 81 -40z m-2396 -128 c104 -107 305 -337 544 -623 215 -257 427 -496 780 -880 334 -363 454 -498 520 -585 30 -38 146 -171 260 -294 113 -124 208 -235 211 -248 7 -27 -11 -53 -36 -53 -9 0 -46 35 -82 78 -68 79 -110 125 -478 518 -930 993 -1830 2054 -1830 2158 0 32 28 14 111 -71z m-1911 -26 c0 -35 -169 -213 -226 -239 -56 -26 -42 27 27 105 97 109 199 177 199 134z m4385 -149 c192 -195 1130 -1275 1386 -1596 145 -180 186 -246 169 -267 -11 -13 -16 -13 -42 3 -45 26 -179 180 -493 567 -105 129 -301 358 -615 720 -372 429 -550 646 -550 673 0 33 45 2 145 -100z m-2619 8 c112 -116 463 -517 533 -609 49 -66 58 -88 45 -121 -10 -26 -33 -18 -47 17 -19 44 -87 127 -280 341 -246 273 -377 431 -377 459 0 27 48 -6 126 -87z m3760 8 c94 -64 294 -271 449 -464 105 -132 139 -180 184 -267 33 -62 89 -120 274 -286 97 -88 143 -153 133 -192 -5 -19 -13 -25 -32 -25 -40 0 -76 32 -162 143 -43 56 -127 161 -186 232 -121 147 -191 247 -202 289 -6 24 -10 27 -35 22 -27 -5 -29 -4 -29 28 0 26 -6 35 -26 45 -43 19 -136 105 -245 228 -132 146 -189 222 -189 251 0 29 18 28 66 -4z m-259 -13 c50 -36 246 -252 508 -561 221 -261 278 -327 475 -545 189 -209 236 -283 186 -293 -26 -6 -166 140 -526 548 -168 190 -372 419 -454 510 -82 91 -167 188 -189 215 -52 65 -79 125 -65 142 15 18 20 17 65 -16z m756 -48 c132 -138 475 -529 610 -696 44 -55 58 -87 38 -87 -35 0 -741 810 -741 850 0 22 23 6 93 -67z m-4511 -54 c58 -30 161 -137 339 -355 85 -103 232 -276 328 -383 272 -307 653 -763 1306 -1566 94 -115 250 -303 348 -419 98 -115 190 -226 204 -247 27 -41 28 -82 1 -87 -36 -7 -117 88 -798 923 -572 703 -700 853 -875 1035 -176 182 -291 314 -434 500 -175 227 -278 354 -311 385 -18 17 -45 58 -60 91 -17 37 -42 73 -64 90 -20 16 -36 35 -36 42 0 16 4 16 52 -9z m1874 -56 c152 -155 509 -596 588 -727 41 -69 44 -86 16 -86 -50 0 -130 70 -130 113 0 14 -59 89 -163 208 -264 302 -427 511 -427 550 0 39 40 19 116 -58z m-2019 -72 c22 -16 61 -53 86 -83 25 -29 168 -197 317 -373 150 -176 494 -577 765 -891 555 -642 812 -948 1120 -1334 259 -323 327 -417 323 -444 -5 -37 -36 -31 -53 10 -19 45 -32 61 -304 379 -319 371 -498 576 -991 1134 -713 808 -1194 1377 -1306 1545 -55 83 -33 112 43 57z m460 -15 c38 -32 89 -124 75 -138 -21 -21 -141 115 -128 147 8 21 20 19 53 -9z m-579 -90 c42 -22 158 -148 273 -296 57 -74 139 -172 183 -217 43 -45 117 -136 165 -201 119 -166 235 -303 424 -503 214 -226 257 -275 400 -464 181 -239 282 -366 598 -746 470 -566 689 -845 689 -880 0 -5 -6 -9 -13 -9 -28 0 -183 176 -702 800 -181 217 -561 672 -845 1010 -1092 1302 -1234 1479 -1215 1510 8 13 11 13 43 -4z m-116 -68 c8 -13 22 -44 31 -69 15 -38 23 -48 48 -53 56 -11 230 -202 244 -268 4 -15 26 -43 51 -63 56 -46 290 -318 566 -658 859 -1060 1340 -1637 1623 -1947 93 -102 133 -166 117 -182 -22 -22 -67 6 -156 93 -54 54 -102 92 -118 96 -20 4 -28 12 -28 27 0 58 -244 363 -958 1195 -343 399 -441 518 -838 1022 -89 112 -219 271 -290 353 -71 82 -168 194 -216 249 -91 106 -144 188 -134 212 8 22 42 18 58 -7z m-1008 -34 c9 -8 16 -22 16 -29 0 -18 -28 -45 -46 -45 -43 0 -85 50 -63 76 15 19 74 18 93 -2z m1940 -109 c53 -47 86 -83 86 -95 0 -36 -27 -21 -99 56 -126 134 -119 154 13 39z m3333 -197 c196 -194 573 -588 676 -707 90 -104 113 -163 50 -130 -55 29 -546 535 -804 829 -121 138 -161 200 -128 200 6 0 99 -87 206 -192z m-683 122 c64 -70 113 -138 127 -179 5 -15 21 -34 35 -42 39 -20 193 -195 399 -449 163 -201 297 -361 410 -490 135 -153 157 -184 153 -212 -4 -32 -33 -34 -77 -5 -50 33 -405 439 -544 621 -59 77 -140 179 -180 226 -85 98 -134 168 -149 210 -5 17 -16 30 -24 30 -43 0 -143 115 -175 201 -11 29 -29 63 -40 77 -22 29 -25 72 -5 72 8 0 39 -27 70 -60z m-3588 -73 c33 -40 184 -225 334 -412 561 -698 944 -1146 1212 -1421 70 -72 128 -138 128 -147 0 -19 84 -126 224 -285 56 -65 160 -184 231 -267 70 -82 193 -223 273 -312 217 -244 249 -292 199 -301 -41 -8 -119 74 -798 848 -682 777 -824 947 -857 1033 -9 22 -22 37 -32 37 -29 0 -64 35 -171 172 -56 73 -198 250 -313 393 -454 559 -555 703 -520 738 11 11 29 -4 90 -76z m-291 -31 c125 -129 189 -246 135 -246 -11 0 -53 32 -95 72 -145 137 -207 248 -138 248 19 0 44 -19 98 -74z m-1066 -8 c13 -27 29 -48 36 -48 7 0 35 18 61 40 77 63 85 52 24 -30 -22 -30 -45 -72 -51 -95 -29 -113 -44 -157 -81 -233 -41 -83 -63 -107 -92 -96 -8 3 -38 34 -66 67 -44 54 -50 67 -50 108 0 77 74 260 127 313 38 38 63 31 92 -26z m2517 -72 c35 -34 64 -67 64 -74 0 -27 -38 -9 -86 41 -150 155 -133 181 22 33z m193 17 c31 -32 105 -121 166 -198 226 -289 665 -804 950 -1115 206 -225 282 -317 478 -574 200 -263 247 -331 247 -358 0 -58 -69 10 -350 347 -119 143 -261 310 -315 370 -336 376 -1058 1243 -1228 1474 -86 116 -47 155 52 54z m-1811 -25 c40 -31 62 -42 88 -41 31 1 34 -2 34 -26 0 -39 58 -125 191 -281 63 -74 182 -218 264 -320 83 -102 191 -229 242 -282 50 -54 110 -121 131 -150 22 -29 91 -107 153 -173 119 -127 258 -287 480 -556 75 -90 211 -249 302 -354 168 -192 181 -209 191 -257 8 -36 79 -123 124 -152 80 -50 323 -336 428 -503 47 -75 69 -153 44 -153 -20 0 -75 62 -327 369 -373 452 -545 643 -616 684 -23 13 -40 31 -44 47 -8 35 -76 129 -175 240 -120 136 -177 208 -193 246 -7 17 -44 65 -82 105 -169 180 -622 717 -920 1092 -96 120 -207 253 -247 295 -78 82 -136 164 -136 194 0 25 6 23 68 -24z m-130 -105 c195 -194 719 -807 1307 -1528 553 -679 800 -969 1004 -1174 117 -118 390 -448 436 -526 24 -40 15 -54 -22 -34 -72 38 -207 183 -743 798 -156 178 -333 378 -394 445 -123 133 -206 231 -250 296 -40 59 -275 337 -372 442 -48 50 -112 135 -153 202 -80 128 -129 191 -277 358 -243 274 -624 740 -624 764 0 28 30 13 88 -43z m6295 -50 c83 -76 102 -102 89 -115 -16 -16 -75 25 -127 89 -43 53 -56 83 -35 83 6 0 38 -26 73 -57z m-6455 -103 c87 -73 158 -158 187 -225 14 -30 34 -56 50 -65 40 -21 217 -218 520 -575 94 -110 214 -248 268 -308 53 -59 97 -116 97 -126 0 -10 -7 -25 -16 -32 -30 -25 -82 17 -194 157 -58 72 -150 180 -204 240 -54 60 -124 143 -155 184 -30 41 -112 134 -181 205 -194 201 -482 568 -466 594 11 18 19 14 94 -49z m3722 18 c28 -24 104 -102 168 -173 132 -147 188 -201 216 -206 11 -2 31 -26 46 -56 34 -65 50 -87 210 -283 214 -261 440 -561 501 -664 12 -20 18 -43 15 -51 -5 -14 -9 -14 -34 -1 -49 25 -214 208 -264 293 -26 43 -73 108 -106 143 -147 163 -707 827 -800 951 -72 95 -45 121 48 47z m-3950 -118 c11 -6 57 -56 102 -113 109 -134 179 -213 517 -582 617 -673 1024 -1130 1201 -1350 58 -71 132 -157 165 -190 88 -88 167 -180 302 -355 67 -85 175 -219 242 -297 282 -333 379 -479 343 -515 -10 -10 -34 16 -218 237 -183 219 -450 531 -609 710 -83 94 -238 271 -345 395 -358 414 -719 816 -1086 1210 -344 369 -573 645 -636 766 -40 77 -31 112 22 84z m1091 -67 c154 -141 239 -244 239 -289 0 -58 -60 -16 -192 132 -102 115 -171 211 -162 225 11 19 33 6 115 -68z m-1163 -144 c78 -57 386 -416 919 -1071 224 -275 276 -344 340 -456 49 -86 53 -125 14 -130 -35 -5 -138 106 -241 258 -250 373 -766 984 -866 1026 -25 10 -33 21 -37 51 -11 65 -130 222 -185 244 -26 10 -45 54 -37 86 8 32 42 30 93 -8z m4803 -206 c41 -43 121 -131 177 -195 56 -64 136 -147 176 -184 41 -37 83 -83 93 -101 18 -34 18 -35 -6 -54 -40 -33 -81 -22 -109 29 -13 23 -71 93 -129 155 -169 180 -313 369 -313 409 0 36 37 16 111 -59z m-3327 -7 c19 -8 37 -24 41 -36 9 -27 -19 -70 -45 -70 -16 0 -20 7 -20 31 0 25 -6 32 -35 45 -36 15 -44 29 -22 37 22 9 47 7 81 -7z m2321 -238 c240 -243 533 -574 774 -872 124 -154 148 -191 129 -202 -13 -8 -68 48 -308 311 -220 241 -439 493 -506 581 -32 43 -103 121 -156 173 -102 100 -148 156 -148 178 0 37 51 -3 215 -169z m-2107 -37 c111 -93 252 -262 252 -303 0 -10 4 -18 9 -18 38 0 221 -192 435 -454 184 -227 294 -355 455 -531 216 -236 262 -289 447 -521 170 -211 215 -277 200 -291 -4 -4 -19 -1 -34 8 -15 8 -245 260 -512 560 -267 300 -620 698 -785 883 -165 185 -328 369 -363 409 -72 82 -202 271 -202 293 0 28 40 13 98 -35z m1550 -143 c236 -261 311 -363 284 -390 -19 -19 -40 -1 -108 96 -34 49 -116 157 -183 242 -67 85 -125 162 -128 169 -14 39 25 4 135 -117z m1037 -140 c170 -173 535 -623 535 -660 0 -4 -6 -8 -14 -8 -19 0 -228 220 -271 285 -18 27 -86 109 -151 180 -188 207 -241 275 -229 295 13 21 31 8 130 -92z m-344 -235 c25 -27 86 -95 135 -153 48 -58 150 -175 224 -260 226 -257 248 -288 220 -305 -24 -15 -94 51 -269 250 -206 234 -381 462 -381 496 0 31 23 22 71 -28z m931 -80 c51 -54 86 -133 60 -133 -18 0 -122 119 -122 139 0 30 31 27 62 -6z m-1200 -42 c82 -91 116 -171 73 -171 -35 0 -164 183 -151 215 9 25 22 17 78 -44z m-1972 -208 c309 -315 576 -607 819 -898 96 -115 244 -290 328 -388 205 -238 273 -324 273 -348 0 -18 -2 -19 -27 -5 -32 17 -265 251 -404 406 -52 58 -208 241 -347 407 -139 166 -296 349 -350 405 -186 196 -487 562 -477 579 11 16 36 -5 185 -158z m2654 46 c79 -70 246 -298 246 -336 0 -29 -32 -8 -100 65 -128 136 -236 284 -224 304 10 16 32 7 78 -33z m-2935 -249 c79 -79 254 -274 421 -470 230 -268 947 -1126 978 -1169 34 -46 41 -81 18 -81 -7 0 -85 73 -173 163 -227 229 -438 464 -668 742 -54 66 -194 230 -310 364 -340 395 -417 496 -402 535 6 15 9 15 37 1 16 -8 61 -46 99 -85z m2656 -92 c78 -86 118 -168 82 -168 -22 0 -166 159 -196 218 -7 12 -9 27 -6 32 11 17 60 -17 120 -82z m-2665 -128 c81 -120 105 -190 64 -190 -36 0 -110 129 -121 210 -8 57 9 51 57 -20z m2678 -65 c36 -53 39 -90 7 -90 -34 0 -85 94 -71 131 9 24 28 12 64 -41z m-2462 -247 c17 -18 52 -64 79 -102 152 -217 404 -507 769 -886 279 -290 337 -360 292 -360 -30 0 -150 104 -346 300 -235 235 -388 406 -537 603 -58 75 -139 176 -182 225 -135 153 -166 206 -141 237 18 22 33 18 66 -17z m2509 -463 c0 -27 -3 -30 -32 -30 -18 0 -38 -6 -44 -12 -19 -19 -29 -16 -29 7 0 32 45 72 78 68 23 -3 27 -8 27 -33z"/>
<path d="M520 11625 c0 -8 61 -95 67 -95 3 0 -6 18 -19 41 -22 39 -48 69 -48 54z"/>
<path d="M1178 10714 c4 -31 2 -34 -22 -34 -32 0 -32 -3 0 -57 28 -49 42 -51 26 -5 -13 37 -2 56 27 47 l22 -7 -20 40 c-27 53 -38 58 -33 16z"/>
<path d="M1270 10455 c0 -12 62 -96 67 -92 5 6 -42 83 -57 92 -5 3 -10 3 -10 0z"/>
<path d="M1419 10407 c17 -25 36 -49 43 -53 6 -4 -3 14 -21 39 -17 25 -36 49 -43 53 -6 4 3 -14 21 -39z"/>
<path d="M1540 10095 c19 -19 36 -35 39 -35 3 0 -10 16 -29 35 -19 19 -36 35 -39 35 -3 0 10 -16 29 -35z"/>
<path d="M1590 10037 c0 -2 15 -16 33 -33 l32 -29 -29 33 c-28 30 -36 37 -36 29z"/>
<path d="M2178 9675 c40 -52 132 -142 132 -129 0 5 -37 45 -82 89 -47 47 -68 63 -50 40z"/>
<path d="M3221 5292 c57 -96 502 -639 649 -792 74 -77 71 -72 -50 89 -301 402 -696 864 -599 703z"/>
<path d="M830 12200 c-7 -17 -10 -46 -7 -66 7 -39 69 -150 112 -199 l27 -30 -28 50 c-15 28 -42 77 -60 110 -31 56 -44 115 -26 115 16 0 81 -77 140 -167 59 -88 99 -134 71 -82 -23 45 -161 254 -182 277 -27 29 -32 28 -47 -8z"/>
<path d="M836 11918 c25 -48 123 -198 129 -198 8 0 -11 35 -77 138 -61 94 -82 118 -52 60z"/>
<path d="M1135 11422 c1 -60 5 -74 39 -130 34 -56 139 -202 174 -242 28 -32 -2 15 -69 108 -37 51 -78 113 -90 139 l-22 46 23 19 23 19 -38 54 c-20 30 -38 55 -39 55 -1 0 -1 -30 -1 -68z"/>
<path d="M1546 10809 c32 -34 74 -59 99 -59 23 0 18 15 -16 55 -26 29 -38 35 -72 35 l-41 0 30 -31z"/>
<path d="M1785 10753 c64 -99 260 -337 263 -319 2 9 6 16 10 16 4 0 37 -31 73 -70 41 -43 75 -70 88 -70 17 0 11 9 -32 53 -28 28 -69 73 -90 100 -29 35 -45 47 -65 47 -33 0 -65 32 -176 173 -74 94 -107 126 -71 70z"/>
<path d="M1779 10600 c16 -25 42 -58 56 -75 l26 -30 -16 30 c-9 17 -35 50 -57 75 l-40 45 31 -45z"/>
<path d="M2259 10250 c-4 -47 -1 -57 21 -78 31 -30 170 -125 170 -116 0 8 -111 160 -153 209 l-35 40 -3 -55z"/>
<path d="M2450 10205 c0 -10 110 -175 116 -175 3 0 -6 21 -21 48 -27 49 -95 141 -95 127z"/>
<path d="M2661 10028 c10 -29 18 -65 19 -79 0 -21 6 -28 29 -32 16 -4 45 -20 65 -38 20 -17 36 -27 36 -23 0 9 -157 224 -163 224 -2 0 4 -24 14 -52z"/>
<path d="M2860 9993 c0 -12 58 -93 66 -93 3 0 -5 18 -18 41 -23 42 -48 69 -48 52z"/>
<path d="M2920 9717 c0 -20 76 -97 95 -97 12 0 13 4 6 18 -18 30 -45 59 -73 77 -24 15 -28 15 -28 2z"/>
<path d="M5413 8463 c9 -2 23 -2 30 0 6 3 -1 5 -18 5 -16 0 -22 -2 -12 -5z"/>
<path d="M4087 8193 c-13 -12 -7 -22 9 -16 9 3 28 -7 50 -28 41 -40 46 -24 5 20 -28 30 -50 38 -64 24z"/>
<path d="M4510 8151 c-11 -22 -13 -52 -4 -75 4 -11 19 -16 49 -16 29 0 47 -6 60 -20 24 -26 14 -49 -19 -43 -21 4 -26 1 -26 -14 0 -10 5 -24 12 -31 30 -30 78 3 78 55 0 37 -53 119 -94 144 -39 24 -43 24 -56 0z"/>
<path d="M4090 8117 c0 -29 130 -231 162 -251 12 -7 21 -6 32 4 15 11 12 15 -21 30 -43 19 -74 56 -133 157 -22 37 -40 64 -40 60z"/>
<path d="M4510 7934 c0 -15 72 -126 77 -120 3 3 -5 22 -18 43 -31 51 -59 88 -59 77z"/>
<path d="M4860 7931 c0 -7 10 -27 22 -44 17 -24 22 -43 20 -84 -1 -32 4 -65 13 -83 26 -50 36 -44 15 9 l-20 51 22 22 c20 20 21 22 3 54 -21 39 -75 93 -75 75z"/>
<path d="M4314 7743 c10 -42 -8 -51 -47 -23 l-32 23 30 -32 c38 -41 69 -39 73 5 2 19 -3 36 -14 45 -15 12 -16 11 -10 -18z"/>
<path d="M4146 7718 c4 -7 49 -77 100 -155 93 -142 131 -190 73 -90 -40 67 -169 257 -176 257 -2 0 -1 -6 3 -12z"/>
<path d="M4541 7705 c-1 -40 57 -344 69 -362 9 -14 10 -3 4 52 -13 122 -11 150 9 149 9 -1 17 3 17 8 0 11 -62 123 -84 153 l-15 20 0 -20z"/>
<path d="M4840 7624 c0 -33 26 -77 41 -69 5 4 2 22 -7 43 -22 52 -34 62 -34 26z"/>
<path d="M8568 7424 c-30 -16 -37 -34 -13 -34 20 0 85 32 85 42 0 13 -43 8 -72 -8z"/>
<path d="M4197 7383 c-15 -14 -6 -73 20 -128 l26 -58 -21 -18 c-29 -23 -28 -46 5 -94 30 -44 41 -32 25 27 -11 42 -6 58 20 58 18 0 19 4 13 40 -6 36 -5 40 14 40 27 0 26 16 0 60 -41 68 -80 96 -102 73z"/>
<path d="M5259 6911 c-44 -43 -49 -52 -40 -69 6 -12 11 -24 11 -27 0 -4 -35 -43 -77 -86 -42 -43 -74 -82 -70 -85 10 -11 51 21 126 97 94 94 156 219 110 219 -5 0 -32 -22 -60 -49z"/>
<path d="M5214 6638 l-29 -33 33 29 c30 28 37 36 29 36 -2 0 -16 -15 -33 -32z"/>
<path d="M5365 6573 c-10 -16 -52 -63 -93 -106 -70 -71 -73 -76 -42 -66 33 12 182 146 201 181 8 15 6 18 -19 18 -21 0 -35 -8 -47 -27z"/>
<path d="M5420 6338 c-25 -30 -32 -42 -16 -28 28 25 71 80 63 80 -2 0 -23 -24 -47 -52z"/>
<path d="M4626 5000 c-41 -46 -49 -76 -10 -39 24 22 60 79 50 79 -2 0 -20 -18 -40 -40z"/>
</g>
</svg>